# xmcd
#
# Track frame offsets: 
#        150
#        24725
#        48445
#        72320
#        92970
#        120235
#        141840
#        165018
#        187078
#        213838
#
# Disc length: 3216 seconds
#
# Revision: 1
# Processed by: cddbd v1.5.2PL0 Copyright (c) Steve Scherf et al.
# Submitted via: ExactAudioCopy v0.99pb5
#
DISCID=850c8e0a
DTITLE=John Mayall - Uncle John's Nickel
DYEAR=1994
DGENRE=Blues-Rock
TTITLE0=Chicago Line
TTITLE1=Gimme One More Day
TTITLE2=One Life to Live
TTITLE3=The Last Time
TTITLE4=Dream About The Blues
TTITLE5=Fascinatin' Lover
TTITLE6=Cold Blooded Woman
TTITLE7=The Dirty Dozen
TTITLE8=Tears Came Rollin' Down
TTITLE9=Life in The Jungle
EXTD=
EXTT0=
EXTT1=
EXTT2=
EXTT3=
EXTT4=
EXTT5=
EXTT6=
EXTT7=
EXTT8=
EXTT9=
PLAYORDER=
